<?xml version="1.0" encoding="UTF-8"?>
<svg xmlns="http://www.w3.org/2000/svg" xmlns:xlink="http://www.w3.org/1999/xlink" width="112pt" height="98pt" viewBox="0 0 112 98" version="1.1">
<g id="surface1">
<path style=" stroke:none;fill-rule:nonzero;fill:rgb(38.039216%,85.490196%,98.431373%);fill-opacity:1;" d="M 91.269531 31.761719 C 90.105469 31.359375 88.929688 30.988281 87.746094 30.644531 C 87.941406 29.84375 88.125 29.039062 88.289062 28.226562 C 90.957031 15.199219 89.214844 4.703125 83.257812 1.246094 C 77.546875 -2.066406 68.207031 1.386719 58.777344 9.648438 C 57.847656 10.464844 56.9375 11.300781 56.050781 12.164062 C 55.457031 11.589844 54.851562 11.03125 54.238281 10.480469 C 44.351562 1.648438 34.445312 -2.074219 28.496094 1.390625 C 22.789062 4.714844 21.097656 14.582031 23.5 26.929688 C 23.738281 28.152344 24.007812 29.367188 24.308594 30.578125 C 22.90625 30.980469 21.554688 31.40625 20.257812 31.859375 C 8.667969 35.925781 1.269531 42.296875 1.269531 48.90625 C 1.269531 55.734375 9.214844 62.582031 21.285156 66.730469 C 22.261719 67.066406 23.25 67.378906 24.246094 67.664062 C 23.921875 68.964844 23.636719 70.277344 23.382812 71.59375 C 21.09375 83.726562 22.882812 93.363281 28.574219 96.664062 C 34.449219 100.074219 44.3125 96.570312 53.917969 88.121094 C 54.675781 87.453125 55.4375 86.746094 56.203125 86.003906 C 57.164062 86.9375 58.148438 87.84375 59.160156 88.71875 C 68.464844 96.777344 77.652344 100.027344 83.335938 96.71875 C 89.207031 93.296875 91.117188 82.949219 88.640625 70.355469 C 88.449219 69.394531 88.230469 68.414062 87.984375 67.410156 C 88.675781 67.207031 89.355469 66.992188 90.019531 66.773438 C 102.566406 62.589844 110.730469 55.824219 110.730469 48.90625 C 110.730469 42.273438 103.09375 35.859375 91.269531 31.761719 Z M 61.847656 13.199219 C 69.929688 6.121094 77.480469 3.328125 80.921875 5.324219 C 84.585938 7.449219 86.011719 16.027344 83.710938 27.277344 C 83.558594 28.011719 83.394531 28.742188 83.21875 29.46875 C 78.394531 28.367188 73.507812 27.589844 68.582031 27.140625 C 65.761719 23.0625 62.667969 19.179688 59.328125 15.519531 C 60.148438 14.726562 60.988281 13.953125 61.847656 13.199219 Z M 33.589844 54.554688 C 34.578125 56.476562 35.613281 58.375 36.691406 60.253906 C 37.792969 62.164062 38.9375 64.050781 40.128906 65.910156 C 36.742188 65.539062 33.375 64.996094 30.042969 64.277344 C 31.007812 61.136719 32.199219 57.871094 33.589844 54.554688 Z M 33.582031 43.484375 C 32.222656 40.234375 31.058594 37.039062 30.105469 33.957031 C 33.230469 33.25 36.558594 32.675781 40.03125 32.242188 C 38.867188 34.0625 37.75 35.914062 36.671875 37.789062 C 35.601562 39.664062 34.570312 41.5625 33.582031 43.484375 Z M 36.070312 49.019531 C 37.511719 46.003906 39.0625 43.042969 40.726562 40.140625 C 42.386719 37.242188 44.15625 34.40625 46.03125 31.640625 C 49.289062 31.390625 52.625 31.261719 56 31.261719 C 59.390625 31.261719 62.730469 31.390625 65.988281 31.640625 C 67.84375 34.402344 69.601562 37.226562 71.261719 40.117188 C 72.929688 43.007812 74.5 45.953125 75.980469 48.953125 C 74.515625 51.980469 72.949219 54.953125 71.277344 57.867188 C 69.617188 60.769531 67.867188 63.609375 66.023438 66.394531 C 62.777344 66.628906 59.421875 66.75 56 66.75 C 52.59375 66.75 49.28125 66.640625 46.089844 66.433594 C 44.199219 63.65625 42.417969 60.808594 40.738281 57.894531 C 39.070312 54.996094 37.515625 52.039062 36.070312 49.019531 Z M 75.328125 60.21875 C 76.425781 58.296875 77.484375 56.351562 78.5 54.382812 C 79.890625 57.546875 81.117188 60.78125 82.175781 64.074219 C 78.804688 64.835938 75.398438 65.421875 71.964844 65.824219 C 73.121094 63.980469 74.242188 62.109375 75.328125 60.21875 Z M 78.457031 43.488281 C 77.445312 41.558594 76.394531 39.648438 75.308594 37.757812 C 74.238281 35.898438 73.128906 34.0625 71.980469 32.25 C 75.472656 32.691406 78.816406 33.28125 81.960938 34.003906 C 80.953125 37.222656 79.78125 40.390625 78.457031 43.488281 Z M 56.050781 18.886719 C 58.328125 21.382812 60.480469 23.996094 62.492188 26.710938 C 58.183594 26.507812 53.871094 26.503906 49.554688 26.707031 C 51.683594 23.886719 53.863281 21.265625 56.050781 18.886719 Z M 30.835938 5.464844 C 34.5 3.332031 42.597656 6.371094 51.132812 13.996094 C 51.675781 14.484375 52.226562 14.996094 52.773438 15.523438 C 49.414062 19.183594 46.300781 23.0625 43.449219 27.136719 C 38.535156 27.578125 33.65625 28.339844 28.84375 29.417969 C 28.5625 28.292969 28.3125 27.164062 28.089844 26.027344 C 26.03125 15.445312 27.398438 7.464844 30.835938 5.464844 Z M 25.5 63.128906 C 24.59375 62.867188 23.691406 62.585938 22.796875 62.277344 C 18.160156 60.8125 13.832031 58.5 10.03125 55.453125 C 7.828125 53.933594 6.347656 51.5625 5.945312 48.90625 C 5.945312 44.898438 11.886719 39.78125 21.796875 36.304688 C 23.042969 35.867188 24.296875 35.472656 25.566406 35.109375 C 27.039062 39.859375 28.820312 44.507812 30.902344 49.023438 C 28.792969 53.601562 26.988281 58.3125 25.5 63.128906 Z M 50.839844 84.578125 C 47.261719 87.886719 43.109375 90.503906 38.585938 92.296875 C 36.175781 93.457031 33.398438 93.5625 30.910156 92.589844 C 27.457031 90.585938 26.023438 82.847656 27.980469 72.472656 C 28.210938 71.246094 28.480469 70.027344 28.777344 68.816406 C 33.640625 69.867188 38.570312 70.585938 43.53125 70.964844 C 46.40625 75.0625 49.542969 78.964844 52.925781 82.648438 C 52.246094 83.308594 51.550781 83.953125 50.839844 84.578125 Z M 56.183594 79.261719 C 53.964844 76.855469 51.753906 74.191406 49.59375 71.328125 C 51.691406 71.414062 53.824219 71.453125 56 71.453125 C 58.230469 71.453125 60.433594 71.40625 62.609375 71.304688 C 60.601562 74.066406 58.457031 76.722656 56.183594 79.261719 Z M 84.578125 85.808594 C 84.375 88.488281 83.078125 90.960938 80.996094 92.644531 C 77.542969 94.652344 70.167969 92.042969 62.210938 85.152344 C 61.300781 84.363281 60.382812 83.523438 59.457031 82.628906 C 62.777344 78.933594 65.839844 75.015625 68.632812 70.90625 C 73.621094 70.480469 78.574219 69.714844 83.460938 68.605469 C 83.683594 69.511719 83.878906 70.398438 84.050781 71.269531 C 85.113281 76.042969 85.289062 80.96875 84.578125 85.808594 Z M 88.546875 62.304688 C 87.949219 62.503906 87.335938 62.699219 86.710938 62.882812 C 85.179688 58.113281 83.328125 53.449219 81.164062 48.929688 C 83.246094 44.472656 85.023438 39.878906 86.492188 35.179688 C 87.613281 35.507812 88.699219 35.851562 89.746094 36.214844 C 99.878906 39.722656 106.054688 44.910156 106.054688 48.90625 C 106.054688 53.164062 99.382812 58.691406 88.546875 62.304688 Z M 88.546875 62.304688 "/>
<path style=" stroke:none;fill-rule:nonzero;fill:rgb(38.039216%,85.490196%,98.431373%);fill-opacity:1;" d="M 56 39.070312 C 61.398438 39.070312 65.773438 43.476562 65.773438 48.90625 C 65.773438 54.339844 61.398438 58.742188 56 58.742188 C 50.601562 58.742188 46.226562 54.339844 46.226562 48.90625 C 46.226562 43.476562 50.601562 39.070312 56 39.070312 "/>
</g>
</svg>
